<?xml version="1.0" standalone="no"?>
<!DOCTYPE svg PUBLIC "-//W3C//DTD SVG 20010904//EN"
 "http://www.w3.org/TR/2001/REC-SVG-20010904/DTD/svg10.dtd">
<svg version="1.0" xmlns="http://www.w3.org/2000/svg"
 width="740.000000pt" height="740.000000pt" viewBox="0 0 740.000000 740.000000"
 preserveAspectRatio="xMidYMid meet">

<g transform="translate(0.000000,740.000000) scale(0.100000,-0.100000)"
fill="#000000" stroke="none">
<path d="M3578 5693 c-11 -3 -18 -14 -18 -28 0 -20 -8 -26 -41 -35 -42 -12
-51 -8 -62 24 -3 8 -206 -37 -867 -192 -237 -55 -245 -58 -245 -82 0 -25 -23
-37 -72 -39 -17 -1 -23 5 -23 20 0 19 -4 21 -32 15 -17 -3 -33 -8 -35 -9 -1
-2 87 -390 197 -863 111 -472 246 -1052 301 -1289 55 -236 115 -494 133 -573
19 -79 36 -145 39 -148 2 -3 16 -2 31 2 19 4 26 13 26 30 0 19 8 25 41 34 42
12 51 8 62 -25 3 -7 426 86 825 182 15 4 22 1 22 -10 0 -25 33 -25 53 0 33 41
107 20 107 -30 0 -25 25 -21 54 8 14 14 32 25 41 25 17 0 52 -33 71 -66 11
-18 13 -18 37 9 15 15 37 27 50 27 27 0 57 -28 57 -53 0 -23 32 -21 53 3 32
38 107 15 107 -33 0 -11 8 -17 25 -17 17 0 25 6 25 17 0 32 50 101 96 131 27
18 66 34 93 37 25 4 53 7 61 8 11 2 22 50 46 192 18 105 80 474 139 820 59
347 137 811 174 1032 l68 401 -27 6 c-79 15 -163 126 -164 217 -1 41 -4 49
-19 49 -11 0 -26 -9 -35 -19 -27 -30 -56 -34 -85 -10 -15 11 -27 29 -27 40 0
27 -28 24 -52 -6 -26 -33 -61 -32 -87 3 -42 55 -41 55 -62 27 -34 -43 -109
-24 -109 28 0 21 -36 23 -44 2 -3 -8 -17 -20 -32 -25 -32 -13 -70 8 -84 46
-12 30 -17 30 -46 -1 -31 -33 -67 -32 -93 3 -42 55 -41 55 -62 27 -34 -43
-109 -24 -109 28 0 11 -8 17 -24 17 -19 0 -26 -7 -31 -32 -5 -19 -28 -52 -59
-83 -53 -53 -103 -75 -168 -75 l-34 0 -13 -82 c-14 -91 -21 -121 -26 -116 -2
2 -25 93 -50 203 -26 110 -49 208 -51 218 -5 17 -13 19 -46 10z m5 -130 c2 -5
7 -25 11 -45 7 -37 6 -37 -35 -48 -49 -14 -58 -7 -62 45 -2 34 1 40 23 46 35
10 58 10 63 2z m45 -195 c8 -31 8 -44 0 -49 -15 -9 -79 -22 -84 -16 -2 2 -7
24 -10 50 -6 44 -6 46 22 50 61 9 61 8 72 -35z m1242 -160 c8 -13 34 -44 58
-70 l43 -46 -36 -214 c-44 -255 -141 -828 -231 -1358 -100 -592 -93 -557 -119
-564 -12 -3 -47 -22 -76 -42 -63 -42 -8 -45 -469 32 -290 49 -327 58 -340 77
-8 12 -35 43 -59 69 l-44 48 63 367 c34 203 113 672 176 1043 63 371 114 682
114 692 0 11 18 27 48 42 26 13 62 35 79 49 l33 24 372 -63 c342 -58 374 -65
388 -86z m-2494 37 c3 -25 5 -48 2 -50 -2 -2 -22 -7 -45 -11 -44 -7 -42 -8
-57 58 -5 23 -2 27 32 36 59 16 60 15 68 -33z m1289 -36 c8 -47 3 -54 -47 -63
-36 -7 -37 -6 -45 31 -11 55 -11 56 17 64 57 16 68 12 75 -32z m-1251 -128 c5
-23 7 -44 4 -47 -3 -3 -25 -6 -49 -7 -42 -2 -43 -1 -51 37 -10 45 -9 46 34 56
47 11 52 8 62 -39z m1278 -36 c-4 -46 -7 -51 -44 -60 -25 -6 -28 -4 -38 35
-12 45 -8 55 25 63 49 12 60 4 57 -38z m-1242 -116 c6 -23 8 -45 3 -50 -4 -4
-27 -11 -50 -15 -35 -5 -43 -4 -43 8 0 9 -3 29 -6 46 -6 28 -4 32 27 41 54 15
58 13 69 -30z m1219 -26 c-1 -10 -4 -29 -8 -43 -8 -25 -8 -25 -15 7 -8 33 -2
53 15 53 5 0 9 -8 8 -17z m-1181 -135 c5 -24 6 -46 3 -50 -3 -4 -25 -10 -48
-14 l-41 -6 -9 43 -9 44 35 12 c55 18 59 16 69 -29z m26 -126 c3 -5 8 -27 12
-49 l6 -41 -42 -7 c-23 -4 -44 -5 -47 -2 -7 8 -23 81 -18 85 3 4 56 18 77 21
4 1 9 -3 12 -7z m48 -192 c10 -48 5 -56 -38 -64 -43 -9 -50 -3 -59 46 -7 35
-6 37 26 47 51 14 62 9 71 -29z m36 -162 c6 -24 8 -46 4 -50 -4 -4 -25 -10
-48 -14 -40 -6 -41 -5 -48 26 -10 53 -8 59 27 69 51 15 54 13 65 -31z m39
-163 c6 -25 7 -47 3 -50 -4 -2 -25 -7 -47 -11 -38 -6 -41 -5 -47 22 -4 16 -9
36 -12 45 -3 13 5 19 33 27 58 15 59 15 70 -33z m36 -159 c11 -44 5 -52 -45
-61 -36 -7 -37 -7 -48 35 -13 48 -12 50 32 60 46 11 51 8 61 -34z m37 -156
c13 -50 10 -56 -36 -65 -43 -8 -50 -2 -59 47 -7 35 -6 37 26 47 54 15 58 13
69 -29z m38 -162 c6 -24 8 -46 4 -50 -4 -4 -25 -10 -48 -14 -40 -6 -41 -5 -48
26 -10 53 -8 59 27 69 51 15 54 13 65 -31z m38 -163 c3 -25 5 -48 2 -50 -2 -2
-22 -7 -45 -11 -38 -6 -41 -5 -47 22 -4 16 -9 36 -12 45 -3 13 5 19 33 27 60
16 61 15 69 -33z m37 -158 c11 -45 5 -53 -45 -62 -36 -7 -37 -6 -47 32 -15 52
-15 51 22 62 49 14 60 9 70 -32z m37 -157 c13 -50 10 -56 -36 -65 -43 -8 -50
-2 -59 47 -7 35 -6 37 26 47 54 15 58 13 69 -29z m38 -162 c6 -24 8 -46 4 -50
-4 -4 -25 -10 -48 -14 -40 -6 -41 -5 -48 26 -10 53 -8 59 27 69 51 15 54 13
65 -31z m38 -163 c3 -25 5 -47 3 -49 -2 -2 -23 -7 -45 -11 -39 -6 -42 -5 -48
22 -4 15 -9 36 -12 45 -4 13 4 20 28 27 61 17 66 15 74 -34z m36 -155 c10 -48
5 -56 -38 -64 -43 -9 -49 -4 -58 46 -6 36 -5 38 26 47 50 14 61 9 70 -29z"/>
<path d="M4072 5248 c-31 -18 -54 -39 -57 -51 -3 -12 -48 -276 -100 -587 -53
-311 -129 -762 -171 -1002 l-74 -438 41 -53 42 -54 343 -58 343 -58 53 33 c29
19 54 35 56 36 2 1 82 466 281 1649 l68 400 -41 50 c-22 28 -41 51 -41 52 0 3
-662 113 -676 112 -8 0 -38 -14 -67 -31z"/>
<path d="M2371 2159 c-202 -39 -235 -355 -46 -440 86 -40 200 -16 262 54 43
50 56 96 51 184 -4 61 -10 81 -34 116 -51 72 -138 104 -233 86z m116 -100 c28
-24 45 -72 45 -129 0 -93 -36 -139 -107 -140 -73 0 -115 51 -115 140 0 66 23
114 63 134 35 18 89 15 114 -5z"/>
<path d="M1610 1935 l0 -225 45 0 45 0 0 173 0 172 49 -140 c27 -77 55 -155
61 -172 11 -30 16 -33 55 -33 l42 0 52 153 c29 83 55 161 60 172 4 11 6 -58 3
-152 l-5 -173 57 0 56 0 -2 223 -3 222 -71 3 -72 3 -30 -85 c-17 -46 -41 -118
-54 -160 -13 -42 -25 -76 -28 -76 -3 0 -11 19 -17 43 -7 23 -30 95 -53 160
l-42 117 -74 0 -74 0 0 -225z"/>
<path d="M2676 2138 c3 -13 38 -114 77 -226 l70 -203 59 3 60 3 74 215 c41
118 74 219 74 223 0 4 -23 7 -52 5 l-52 -3 -51 -173 -51 -173 -31 103 c-18 57
-41 136 -53 176 l-22 72 -55 0 c-52 0 -54 -1 -47 -22z"/>
<path d="M3150 1935 l0 -225 50 0 50 0 0 225 0 225 -50 0 -50 0 0 -225z"/>
<path d="M3350 1935 l0 -225 135 0 135 0 0 40 0 40 -85 0 -85 0 0 50 0 50 75
0 75 0 0 40 0 39 -72 3 -73 3 0 50 0 50 78 0 77 0 0 43 0 42 -130 0 -130 0 0
-225z"/>
<path d="M3687 2154 c-4 -4 -7 -22 -7 -41 l0 -33 65 0 65 0 0 -185 0 -185 50
0 50 0 0 185 0 185 66 0 65 0 -3 37 -3 36 -171 4 c-93 2 -173 0 -177 -3z"/>
<path d="M4107 2153 c-4 -3 -7 -105 -7 -225 l0 -218 50 0 50 0 0 225 0 225
-43 0 c-24 0 -47 -3 -50 -7z"/>
<path d="M4415 2141 c-91 -42 -130 -106 -130 -216 0 -69 4 -86 27 -125 39 -67
94 -95 188 -95 41 0 87 3 103 8 24 7 27 12 27 52 l0 44 -42 -15 c-121 -43
-227 46 -204 171 8 42 46 88 86 105 30 12 107 10 143 -5 15 -6 17 -1 17 38 0
38 -3 46 -22 51 -48 12 -153 6 -193 -13z"/>
<path d="M4717 2154 c-4 -4 -7 -106 -7 -226 l0 -218 50 0 49 0 3 105 3 106 70
-105 70 -106 62 0 63 0 -85 116 -85 117 23 31 c59 78 127 174 127 180 0 8 -49
8 -86 0 -23 -4 -42 -25 -94 -104 l-65 -99 -5 102 -5 102 -40 3 c-23 2 -44 0
-48 -4z"/>
<path d="M5130 1935 l0 -225 136 0 135 0 -3 38 -3 37 -82 3 -83 3 0 49 0 50
70 0 c49 0 70 4 71 13 1 6 2 24 3 40 l3 27 -74 0 -73 0 0 55 0 55 81 0 80 0
-3 38 -3 37 -127 3 -128 3 0 -226z"/>
<path d="M5437 2154 c-4 -4 -7 -22 -7 -41 l0 -33 65 0 65 0 0 -185 0 -185 50
0 50 0 0 185 0 185 66 0 65 0 -3 38 -3 37 -171 3 c-93 1 -173 -1 -177 -4z"/>
</g>
</svg>
